Coordinates
version=1
nRows=13
nColumns=36
inDegrees=yes

Units are S.I. units (second, meters, Newtons, ...)
If the header above contains a line with 'inDegrees', this indicates whether rotational values are in degrees (yes) or radians (no).

endheader
time	pelvis_tilt	pelvis_list	pelvis_rotation	pelvis_tx	pelvis_ty	pelvis_tz	hip_flexion_r	hip_adduction_r	hip_rotation_r	knee_angle_r	knee_angle_r_beta	ankle_angle_r	subtalar_angle_r	mtp_angle_r	hip_flexion_l	hip_adduction_l	hip_rotation_l	knee_angle_l	knee_angle_l_beta	ankle_angle_l	subtalar_angle_l	mtp_angle_l	lumbar_extension	lumbar_bending	lumbar_rotation	arm_flex_r	arm_add_r	arm_rot_r	elbow_flex_r	pro_sup_r	arm_flex_l	arm_add_l	arm_rot_l	elbow_flex_l	pro_sup_l
      0.00000000	     -9.31600785	      3.33057272	     -2.12245455	     -0.37300526	      1.40424167	     -0.06156297	     11.04753193	     -6.32642202	      1.18962306	     38.51753208	      0.67225775	    -38.07483650	    -21.96562219	     -7.00176890	     18.69711347	      3.53146129	      1.55817797	     51.90628278	      0.90593554	     -9.97561227	    -14.48676581	     -7.00176890	     -3.92938854	     -3.62479871	      8.37588665	     97.22228541	    -30.93747038	     39.01273503	    110.69717642	     79.69202849	     89.48840621	    -24.26412432	     48.18170618	    115.42324243	     84.37401080
      0.01666670	     -9.47688850	      1.78917045	     -2.05412155	     -0.35417220	      1.41055311	     -0.05925852	     11.16000248	     -4.21124964	      2.63411123	     39.11323852	      0.68265479	    -34.46831628	    -18.06607162	     -7.04667924	     19.77037348	      0.74129595	      1.46222459	     50.39439351	      0.87954809	    -12.29095574	    -10.83160782	     -7.04667924	     -4.24936115	     -2.84941178	      6.26213620	     99.93197563	    -30.49246775	     37.72399516	    111.25901241	     79.81870274	     93.98704086	    -23.54227288	     43.92131033	    114.45061323	     83.80780929
      0.03333330	     -9.59364164	      0.44693091	     -0.91388907	     -0.32514067	      1.41714005	     -0.05876959	     11.40058994	     -2.93349415	      1.49337073	     40.14332290	      0.70063316	    -29.86188211	    -16.19866582	     -7.07107493	     19.63465903	     -1.42998469	      1.65690564	     47.10060752	      0.82206068	    -14.21744651	    -12.86141007	     -7.07107493	     -5.13093665	     -2.25790706	      4.85467356	    104.13432777	    -34.93676766	     36.29678289	    111.57170921	     80.65446303	     98.21465028	    -24.16914360	     42.36038937	    113.27203181	     84.16671143
      0.05000000	     -9.23941434	      0.13436696	      0.22004283	     -0.30291880	      1.43129606	     -0.06243063	     11.28649177	     -2.84137315	      1.23263667	     39.93462470	      0.69699069	    -23.63923358	    -11.45848642	     -7.15804283	     19.79457959	     -1.50709529	      1.70680410	     44.59030514	      0.77824764	    -15.01150351	    -14.46757151	     -7.15804283	     -5.44170214	     -2.75188105	      5.31309338	    102.72811603	    -39.71684774	     36.15330313	    112.36065669	     94.13411543	     96.07510808	    -23.06200456	     41.08710122	    113.20839783	     94.56382939
      0.06666670	     -9.05376975	     -0.14368895	      0.51122188	     -0.29165680	      1.43433913	     -0.06320003	     12.34520624	     -2.72449982	      0.93154223	     40.63685639	      0.70924694	    -22.97864797	    -10.74314959	     -7.18924712	     19.95081079	     -2.33305365	      0.74453825	     42.98584504	      0.75024453	    -15.44324397	    -14.33370487	     -7.18924712	     -5.58272780	     -1.67511262	      4.42796456	    103.18479740	    -38.99358667	     38.60353569	    110.63904968	     95.29123432	     91.03217075	    -25.45841365	     38.60239315	    116.56922832	     94.85519701
      0.08333330	     -8.34640487	     -0.29677115	     -0.14632901	     -0.26987761	      1.44042447	     -0.06387297	     13.19670756	     -2.63969817	      0.91624581	     40.90668470	      0.71395633	    -20.16179364	     -9.80419999	     -7.22798133	     19.42995887	     -2.93241828	     -0.24611650	     39.74197694	      0.69362835	    -15.10506634	    -13.29162669	     -7.22798133	     -5.98533105	     -0.96034319	      3.96217275	    101.76909852	    -38.89992415	     39.82680560	    108.12714009	     96.36986267	     85.77103036	    -28.24204543	     37.87851587	    116.64230450	     94.60855824
      0.10000000	     -7.94572419	     -0.28606880	     -0.82294496	     -0.24710952	      1.44175479	     -0.04601745	     14.03494164	     -2.14357710	      1.57856770	     41.08776585	      0.71711680	    -19.58792758	    -10.17009946	     -7.24973449	     19.04689904	     -4.06722292	     -1.29146362	     37.41998357	      0.65310192	    -16.13794022	    -13.34909359	     -7.24973449	     -6.49664456	     -0.34729009	      2.82085343	    100.62421205	    -36.10556103	     40.54267990	    107.40660214	     97.27916956	     80.27231113	    -35.02376770	     34.81911331	    122.14292750	     94.52464359
      0.11666670	     -7.43460598	     -0.02819322	     -1.13922076	     -0.23121327	      1.44203324	     -0.05156139	     13.78075755	     -2.52552169	      0.95754923	     37.87161899	      0.66098444	    -21.01045458	    -11.82326179	     -7.24974309	     18.11908166	     -4.26839125	     -1.57003864	     33.94023149	      0.59236879	    -18.62795287	    -10.76355591	     -7.24974309	     -7.24749729	     -0.67313417	      2.07445506	     96.83572802	    -36.94179561	     38.41568926	    107.87788492	     98.09525096	     75.54480226	    -38.94037804	     32.95965464	    124.86068395	     94.84897151
      0.13333330	     -6.41526096	     -0.17107458	      0.09937474	     -0.21114743	      1.42908667	     -0.06104756	     13.29789378	     -3.61441790	     -1.18390247	     36.20591510	      0.63191243	    -21.02791480	    -10.69593093	     -7.25899118	     18.19114244	     -4.15643524	     -1.96446753	     32.78396447	      0.57218812	    -20.19265833	    -10.10413152	     -7.25899118	     -8.23685245	     -0.31944052	      0.88731487	     95.17977335	    -38.34950738	     37.22826876	    107.55614394	     97.90826300	     72.91398896	    -40.52742834	     32.42764277	    124.49156771	     94.38643723
      0.15000000	     -6.15339663	      0.16286013	      1.24391884	     -0.19537109	      1.41538579	     -0.06723783	     14.16627456	     -5.05877790	     -3.01548258	     35.48671230	      0.61935997	    -19.90465235	    -11.18906755	     -7.27317570	     18.78457827	     -3.50215752	     -2.66246599	     31.24368590	      0.54530519	    -18.22049476	     -7.70851692	     -7.27317570	     -8.43378099	     -0.54897829	     -0.02736060	     94.14396585	    -41.58814660	     37.62414820	    105.38501426	     97.27471403	     70.82715754	    -41.74129029	     33.08580294	    122.27353081	     93.41395232
      0.16666670	     -5.70907805	      0.08649493	      0.69610828	     -0.16941247	      1.40724293	     -0.05392271	     14.51270319	     -4.77255531	     -2.63858557	     33.54623059	      0.58549218	    -19.59343646	    -10.25695200	     -7.31444007	     18.61521685	     -3.93269507	     -2.76629445	     28.92764215	      0.50488260	    -18.33234805	     -7.21744817	     -7.31444007	     -8.16664388	     -1.34682127	      0.60244289	     87.99301903	    -44.40531798	     33.76863592	    106.45861343	     97.34467957	     67.04946622	    -40.88703714	     32.52738579	    119.46664897	     91.95715728
      0.18333330	     -5.91503937	     -0.01289962	      1.30649506	     -0.15745463	      1.39595477	     -0.04640108	     15.33977735	     -4.32230815	     -2.40335068	     30.57927732	      0.53370907	    -18.93535662	    -10.59736336	     -7.32907240	     19.14142736	     -4.36911874	     -1.93599569	     26.63294444	      0.46483257	    -18.63823763	     -6.36232055	     -7.32907240	     -8.14213787	     -1.99205969	      0.25062704	     81.62438064	    -46.37823358	     29.26211823	    107.05406108	     97.10878992	     62.76027229	    -40.73098508	     29.81166525	    118.11475652	     91.45894619
      0.20000000	     -6.04144033	     -0.49422641	      1.91156986	     -0.14188398	      1.37988076	     -0.05168993	     16.20758414	     -4.00668909	     -2.84331809	     27.71227874	      0.48367051	    -17.00929394	     -9.49521560	     -7.33820039	     20.13467796	     -4.82097595	     -1.69088554	     24.11190895	      0.42083220	    -19.23146948	     -5.40328192	     -7.33820039	     -8.38875047	     -1.39319240	      0.36162102	     76.01336672	    -48.38438622	     26.75436743	    107.29765561	     96.48628218	     57.53327299	    -40.77640375	     26.64452040	    116.25777808	     90.72614999
